{
  "accessors": [
    {
      "bufferView": 2,
      "componentType": 5126,
      "count": 11693,
      "max": [
        1.2924072742462158,
        0.50787413120269775,
        0.52565503120422363
      ],
      "min": [
        -1.6716870069503784,
        -0.68958151340484619,
        -0.6226380467414856
      ],
      "type": "VEC3"
    },
    {
      "bufferView": 2,
      "byteOffset": 140316,
      "componentType": 5126,
      "count": 11693,
      "max": [
        1,
        1,
        1
      ],
      "min": [
        -1,
        -1,
        -1
      ],
      "type": "VEC3"
    },
    {
      "bufferView": 3,
      "componentType": 5126,
      "count": 11693,
      "max": [
        1,
        1,
        1,
        1
      ],
      "min": [
        -1,
        -1,
        -1,
        -1
      ],
      "type": "VEC4"
    },
    {
      "bufferView": 1,
      "componentType": 5126,
      "count": 11693,
      "max": [
        0.9409860372543335,
        0.99954533576965332
      ],
      "min": [
        0.00045464903814718127,
        0.00045464903814718127
      ],
      "type": "VEC2"
    },
    {
      "bufferView": 0,
      "componentType": 5125,
      "count": 59166,
      "max": [
        11692
      ],
      "min": [
        0
      ],
      "type": "SCALAR"
    },
    {
      "bufferView": 2,
      "byteOffset": 280632,
      "componentType": 5126,
      "count": 2946,
      "max": [
        1.3954248428344727,
        0.29062670469284058,
        0.3734191358089447
      ],
      "min": [
        -1.5092045068740845,
        -0.15654626488685608,
        -0.50293755531311035
      ],
      "type": "VEC3"
    },
    {
      "bufferView": 2,
      "byteOffset": 315984,
      "componentType": 5126,
      "count": 2946,
      "max": [
        0.99999725818634033,
        0.99893301725387573,
        0.99866235256195068
      ],
      "min": [
        -0.99995994567871094,
        -0.99988001585006714,
        -0.9998055100440979
      ],
      "type": "VEC3"
    },
    {
      "bufferView": 3,
      "byteOffset": 187088,
      "componentType": 5126,
      "count": 2946,
      "max": [
        0.99983841180801392,
        0.99995362758636475,
        0.99974918365478516,
        1
      ],
      "min": [
        -0.99362361431121826,
        -0.99921667575836182,
        -0.95965790748596191,
        1
      ],
      "type": "VEC4"
    },
    {
      "bufferView": 1,
      "byteOffset": 93544,
      "componentType": 5126,
      "count": 2946,
      "max": [
        0.99532234668731689,
        0.99989944696426392
      ],
      "min": [
        0.00010059576743515208,
        0.00010059576743515208
      ],
      "type": "VEC2"
    },
    {
      "bufferView": 0,
      "byteOffset": 236664,
      "componentType": 5125,
      "count": 16578,
      "max": [
        2945
      ],
      "min": [
        0
      ],
      "type": "SCALAR"
    }
  ],
  "asset": {
    "extras": {
      "author": "Mateusz Woliński (https://sketchfab.com/jeandiz)",
      "license": "CC-BY-4.0 (http://creativecommons.org/licenses/by/4.0/)",
      "source": "https://sketchfab.com/3d-models/couch-51afb7573410472ca3d1c181f31add07",
      "title": "Couch"
    },
    "generator": "Sketchfab-10.23.0",
    "version": "2.0"
  },
  "bufferViews": [
    {
      "buffer": 0,
      "byteLength": 302976,
      "byteOffset": 0,
      "name": "floatBufferViews",
      "target": 34963
    },
    {
      "buffer": 0,
      "byteLength": 117112,
      "byteOffset": 302976,
      "byteStride": 8,
      "name": "floatBufferViews",
      "target": 34962
    },
    {
      "buffer": 0,
      "byteLength": 351336,
      "byteOffset": 420088,
      "byteStride": 12,
      "name": "floatBufferViews",
      "target": 34962
    },
    {
      "buffer": 0,
      "byteLength": 234224,
      "byteOffset": 771424,
      "byteStride": 16,
      "name": "floatBufferViews",
      "target": 34962
    }
  ],
  "buffers": [
    {
      "byteLength": 1005648,
      "uri": "scene.bin"
    }
  ],
  "images": [
    {
      "uri": "textures/Couch_baseColor.jpeg"
    },
    {
      "uri": "textures/Couch_metallicRoughness.png"
    },
    {
      "uri": "textures/Couch_normal.png"
    },
    {
      "uri": "textures/blanket_baseColor.jpeg"
    },
    {
      "uri": "textures/blanket_metallicRoughness.png"
    },
    {
      "uri": "textures/blanket_normal.png"
    }
  ],
  "materials": [
    {
      "doubleSided": false,
      "emissiveFactor": [
        0,
        0,
        0
      ],
      "name": "Couch",
      "normalTexture": {
        "index": 2,
        "scale": 1,
        "texCoord": 0
      },
      "pbrMetallicRoughness": {
        "baseColorFactor": [
          1,
          1,
          1,
          1
        ],
        "baseColorTexture": {
          "index": 0,
          "texCoord": 0
        },
        "metallicFactor": 1,
        "metallicRoughnessTexture": {
          "index": 1,
          "texCoord": 0
        },
        "roughnessFactor": 1
      }
    },
    {
      "doubleSided": true,
      "emissiveFactor": [
        0,
        0,
        0
      ],
      "name": "blanket",
      "normalTexture": {
        "index": 5,
        "scale": 1,
        "texCoord": 0
      },
      "pbrMetallicRoughness": {
        "baseColorFactor": [
          1,
          1,
          1,
          1
        ],
        "baseColorTexture": {
          "index": 3,
          "texCoord": 0
        },
        "metallicFactor": 1,
        "metallicRoughnessTexture": {
          "index": 4,
          "texCoord": 0
        },
        "roughnessFactor": 1
      }
    }
  ],
  "meshes": [
    {
      "name": "couch_Couch_0",
      "primitives": [
        {
          "attributes": {
            "NORMAL": 1,
            "POSITION": 0,
            "TANGENT": 2,
            "TEXCOORD_0": 3
          },
          "indices": 4,
          "material": 0,
          "mode": 4
        }
      ]
    },
    {
      "name": "couch_blanket_0",
      "primitives": [
        {
          "attributes": {
            "NORMAL": 6,
            "POSITION": 5,
            "TANGENT": 7,
            "TEXCOORD_0": 8
          },
          "indices": 9,
          "material": 1,
          "mode": 4
        }
      ]
    }
  ],
  "nodes": [
    {
      "children": [
        1
      ],
      "name": "RootNode (gltf orientation matrix)",
      "rotation": [
        -0.70710678118654746,
        -0,
        -0,
        0.70710678118654757
      ]
    },
    {
      "children": [
        2
      ],
      "name": "RootNode (model correction matrix)"
    },
    {
      "children": [
        3
      ],
      "matrix": [
        1,
        0,
        0,
        0,
        0,
        0,
        1,
        0,
        0,
        -1,
        0,
        0,
        0,
        0,
        0,
        1
      ],
      "name": "723d77e81ced4342b0e9452d2affe4e8.fbx"
    },
    {
      "children": [
        4
      ],
      "name": "RootNode"
    },
    {
      "children": [
        5,
        6
      ],
      "matrix": [
        100,
        0,
        0,
        0,
        0,
        -1.6292067939183141e-05,
        -99.999999999998678,
        0,
        0,
        99.999999999998678,
        -1.6292067939183141e-05,
        0,
        0,
        0,
        0,
        1
      ],
      "name": "couch"
    },
    {
      "mesh": 0,
      "name": "couch_Couch_0"
    },
    {
      "mesh": 1,
      "name": "couch_blanket_0"
    }
  ],
  "samplers": [
    {
      "magFilter": 9729,
      "minFilter": 9987,
      "wrapS": 10497,
      "wrapT": 10497
    }
  ],
  "scene": 0,
  "scenes": [
    {
      "name": "OSG_Scene",
      "nodes": [
        0
      ]
    }
  ],
  "textures": [
    {
      "sampler": 0,
      "source": 0
    },
    {
      "sampler": 0,
      "source": 1
    },
    {
      "sampler": 0,
      "source": 2
    },
    {
      "sampler": 0,
      "source": 3
    },
    {
      "sampler": 0,
      "source": 4
    },
    {
      "sampler": 0,
      "source": 5
    }
  ]
}

